<?xml version="1.0" standalone="no"?>
<!DOCTYPE svg PUBLIC "-//W3C//DTD SVG 1.1//EN" "http://www.w3.org/Graphics/SVG/1.1/DTD/svg11.dtd">
<svg xmlns:xlink="http://www.w3.org/1999/xlink" width="26.141ex" height="9.843ex" style="vertical-align: -4.338ex;" viewBox="0 -2370 11255.2 4237.8" xmlns="http://www.w3.org/2000/svg">
<defs>
<path stroke-width="10" id="E1-MJMATHI-59" d="M66 637Q54 637 49 637T39 638T32 641T30 647T33 664T42 682Q44 683 56 683Q104 680 165 680Q288 680 306 683H316Q322 677 322 674T320 656Q316 643 310 637H298Q242 637 242 624Q242 619 292 477T343 333L346 336Q350 340 358 349T379 373T411 410T454 461Q546 568 561 587T577 618Q577 634 545 637Q528 637 528 647Q528 649 530 661Q533 676 535 679T549 683Q551 683 578 682T657 680Q684 680 713 681T746 682Q763 682 763 673Q763 669 760 657T755 643Q753 637 734 637Q662 632 617 587Q608 578 477 424L348 273L322 169Q295 62 295 57Q295 46 363 46Q379 46 384 45T390 35Q390 33 388 23Q384 6 382 4T366 1Q361 1 324 1T232 2Q170 2 138 2T102 1Q84 1 84 9Q84 14 87 24Q88 27 89 30T90 35T91 39T93 42T96 44T101 45T107 45T116 46T129 46Q168 47 180 50T198 63Q201 68 227 171L252 274L129 623Q128 624 127 625T125 627T122 629T118 631T113 633T105 634T96 635T83 636T66 637Z"></path>
<path stroke-width="10" id="E1-MJMATHI-74" d="M26 385Q19 392 19 395Q19 399 22 411T27 425Q29 430 36 430T87 431H140L159 511Q162 522 166 540T173 566T179 586T187 603T197 615T211 624T229 626Q247 625 254 615T261 596Q261 589 252 549T232 470L222 433Q222 431 272 431H323Q330 424 330 420Q330 398 317 385H210L174 240Q135 80 135 68Q135 26 162 26Q197 26 230 60T283 144Q285 150 288 151T303 153H307Q322 153 322 145Q322 142 319 133Q314 117 301 95T267 48T216 6T155 -11Q125 -11 98 4T59 56Q57 64 57 83V101L92 241Q127 382 128 383Q128 385 77 385H26Z"></path>
<path stroke-width="10" id="E1-MJMAIN-2032" d="M79 43Q73 43 52 49T30 61Q30 68 85 293T146 528Q161 560 198 560Q218 560 240 545T262 501Q262 496 260 486Q259 479 173 263T84 45T79 43Z"></path>
<path stroke-width="10" id="E1-MJMAIN-3D" d="M56 347Q56 360 70 367H707Q722 359 722 347Q722 336 708 328L390 327H72Q56 332 56 347ZM56 153Q56 168 72 173H708Q722 163 722 153Q722 140 707 133H70Q56 140 56 153Z"></path>
<path stroke-width="10" id="E1-MJMAIN-28" d="M94 250Q94 319 104 381T127 488T164 576T202 643T244 695T277 729T302 750H315H319Q333 750 333 741Q333 738 316 720T275 667T226 581T184 443T167 250T184 58T225 -81T274 -167T316 -220T333 -241Q333 -250 318 -250H315H302L274 -226Q180 -141 137 -14T94 250Z"></path>
<path stroke-width="10" id="E1-MJMAIN-2B" d="M56 237T56 250T70 270H369V420L370 570Q380 583 389 583Q402 583 409 568V270H707Q722 262 722 250T707 230H409V-68Q401 -82 391 -82H389H387Q375 -82 369 -68V230H70Q56 237 56 250Z"></path>
<path stroke-width="10" id="E1-MJMAIN-31" d="M213 578L200 573Q186 568 160 563T102 556H83V602H102Q149 604 189 617T245 641T273 663Q275 666 285 666Q294 666 302 660V361L303 61Q310 54 315 52T339 48T401 46H427V0H416Q395 3 257 3Q121 3 100 0H88V46H114Q136 46 152 46T177 47T193 50T201 52T207 57T213 61V578Z"></path>
<path stroke-width="10" id="E1-MJMAIN-32" d="M109 429Q82 429 66 447T50 491Q50 562 103 614T235 666Q326 666 387 610T449 465Q449 422 429 383T381 315T301 241Q265 210 201 149L142 93L218 92Q375 92 385 97Q392 99 409 186V189H449V186Q448 183 436 95T421 3V0H50V19V31Q50 38 56 46T86 81Q115 113 136 137Q145 147 170 174T204 211T233 244T261 278T284 308T305 340T320 369T333 401T340 431T343 464Q343 527 309 573T212 619Q179 619 154 602T119 569T109 550Q109 549 114 549Q132 549 151 535T170 489Q170 464 154 447T109 429Z"></path>
<path stroke-width="10" id="E1-MJMAIN-38" d="M70 417T70 494T124 618T248 666Q319 666 374 624T429 515Q429 485 418 459T392 417T361 389T335 371T324 363L338 354Q352 344 366 334T382 323Q457 264 457 174Q457 95 399 37T249 -22Q159 -22 101 29T43 155Q43 263 172 335L154 348Q133 361 127 368Q70 417 70 494ZM286 386L292 390Q298 394 301 396T311 403T323 413T334 425T345 438T355 454T364 471T369 491T371 513Q371 556 342 586T275 624Q268 625 242 625Q201 625 165 599T128 534Q128 511 141 492T167 463T217 431Q224 426 228 424L286 386ZM250 21Q308 21 350 55T392 137Q392 154 387 169T375 194T353 216T330 234T301 253T274 270Q260 279 244 289T218 306L210 311Q204 311 181 294T133 239T107 157Q107 98 150 60T250 21Z"></path>
<path stroke-width="10" id="E1-MJMAIN-29" d="M60 749L64 750Q69 750 74 750H86L114 726Q208 641 251 514T294 250Q294 182 284 119T261 12T224 -76T186 -143T145 -194T113 -227T90 -246Q87 -249 86 -250H74Q66 -250 63 -250T58 -247T55 -238Q56 -237 66 -225Q221 -64 221 250T66 725Q56 737 55 738Q55 746 60 749Z"></path>
<path stroke-width="10" id="E1-MJMAIN-226B" d="M55 539T55 547T60 561T74 567Q81 567 207 498Q297 449 365 412Q633 265 636 261Q639 255 639 250Q639 241 626 232Q614 224 365 88Q83 -65 79 -66Q76 -67 73 -67Q65 -67 60 -61T55 -47Q55 -39 61 -33Q62 -33 95 -15T193 39T320 109L321 110H322L323 111H324L325 112L326 113H327L329 114H330L331 115H332L333 116L334 117H335L336 118H337L338 119H339L340 120L341 121H342L343 122H344L345 123H346L347 124L348 125H349L351 126H352L353 127H354L355 128L356 129H357L358 130H359L360 131H361L362 132L363 133H364L365 134H366L367 135H368L369 136H370L371 137L372 138H373L374 139H375L376 140L378 141L576 251Q63 530 62 533Q55 539 55 547ZM360 539T360 547T365 561T379 567Q386 567 512 498Q602 449 670 412Q938 265 941 261Q944 255 944 250Q944 241 931 232Q919 224 670 88Q388 -65 384 -66Q381 -67 378 -67Q370 -67 365 -61T360 -47Q360 -39 366 -33Q367 -33 400 -15T498 39T625 109L626 110H627L628 111H629L630 112L631 113H632L634 114H635L636 115H637L638 116L639 117H640L641 118H642L643 119H644L645 120L646 121H647L648 122H649L650 123H651L652 124L653 125H654L656 126H657L658 127H659L660 128L661 129H662L663 130H664L665 131H666L667 132L668 133H669L670 134H671L672 135H673L674 136H675L676 137L677 138H678L679 139H680L681 140L683 141L881 251Q368 530 367 533Q360 539 360 547Z"></path>
<path stroke-width="10" id="E1-MJMATHI-55" d="M107 637Q73 637 71 641Q70 643 70 649Q70 673 81 682Q83 683 98 683Q139 681 234 681Q268 681 297 681T342 682T362 682Q378 682 378 672Q378 670 376 658Q371 641 366 638H364Q362 638 359 638T352 638T343 637T334 637Q295 636 284 634T266 623Q265 621 238 518T184 302T154 169Q152 155 152 140Q152 86 183 55T269 24Q336 24 403 69T501 205L552 406Q599 598 599 606Q599 633 535 637Q511 637 511 648Q511 650 513 660Q517 676 519 679T529 683Q532 683 561 682T645 680Q696 680 723 681T752 682Q767 682 767 672Q767 650 759 642Q756 637 737 637Q666 633 648 597Q646 592 598 404Q557 235 548 205Q515 105 433 42T263 -22Q171 -22 116 34T60 167V183Q60 201 115 421Q164 622 164 628Q164 635 107 637Z"></path>
<path stroke-width="10" id="E1-MJMATHI-56" d="M52 648Q52 670 65 683H76Q118 680 181 680Q299 680 320 683H330Q336 677 336 674T334 656Q329 641 325 637H304Q282 635 274 635Q245 630 242 620Q242 618 271 369T301 118L374 235Q447 352 520 471T595 594Q599 601 599 609Q599 633 555 637Q537 637 537 648Q537 649 539 661Q542 675 545 679T558 683Q560 683 570 683T604 682T668 681Q737 681 755 683H762Q769 676 769 672Q769 655 760 640Q757 637 743 637Q730 636 719 635T698 630T682 623T670 615T660 608T652 599T645 592L452 282Q272 -9 266 -16Q263 -18 259 -21L241 -22H234Q216 -22 216 -15Q213 -9 177 305Q139 623 138 626Q133 637 76 637H59Q52 642 52 648Z"></path>
</defs>
<g stroke="currentColor" fill="currentColor" stroke-width="0" transform="matrix(1 0 0 -1 0 0)">
<g transform="translate(167,0)">
<g transform="translate(-11,0)">
<g transform="translate(0,1440)">
 <use xlink:href="#E1-MJMATHI-59" x="0" y="0"></use>
<g transform="translate(768,0)">
 <use xlink:href="#E1-MJMATHI-74" x="0" y="0"></use>
 <use transform="scale(0.707)" xlink:href="#E1-MJMAIN-2032" x="517" y="513"></use>
</g>
</g>
<g transform="translate(293,-20)">
 <use xlink:href="#E1-MJMATHI-55" x="0" y="0"></use>
 <use xlink:href="#E1-MJMATHI-74" x="772" y="0"></use>
</g>
<g transform="translate(291,-1480)">
 <use xlink:href="#E1-MJMATHI-56" x="0" y="0"></use>
 <use xlink:href="#E1-MJMATHI-74" x="774" y="0"></use>
</g>
</g>
<g transform="translate(2421,0)">
 <use xlink:href="#E1-MJMAIN-3D" x="0" y="1440"></use>
 <use xlink:href="#E1-MJMAIN-3D" x="0" y="-20"></use>
 <use xlink:href="#E1-MJMAIN-3D" x="0" y="-1480"></use>
</g>
<g transform="translate(4204,0)">
<g transform="translate(0,1440)">
 <use xlink:href="#E1-MJMAIN-28" x="0" y="0"></use>
<g transform="translate(394,0)">
 <use xlink:href="#E1-MJMATHI-59" x="0" y="0"></use>
 <use transform="scale(0.707)" xlink:href="#E1-MJMAIN-2032" x="1163" y="513"></use>
</g>
 <use xlink:href="#E1-MJMAIN-2B" x="1736" y="0"></use>
<g transform="translate(2742,0)">
 <use xlink:href="#E1-MJMAIN-31"></use>
 <use xlink:href="#E1-MJMAIN-32" x="505" y="0"></use>
 <use xlink:href="#E1-MJMAIN-38" x="1010" y="0"></use>
</g>
 <use xlink:href="#E1-MJMAIN-29" x="4257" y="0"></use>
 <use xlink:href="#E1-MJMAIN-226B" x="4928" y="0"></use>
 <use xlink:href="#E1-MJMAIN-38" x="6211" y="0"></use>
</g>
<g transform="translate(0,-20)">
 <use xlink:href="#E1-MJMAIN-28" x="0" y="0"></use>
 <use xlink:href="#E1-MJMATHI-55" x="394" y="0"></use>
 <use xlink:href="#E1-MJMAIN-2B" x="1388" y="0"></use>
<g transform="translate(2393,0)">
 <use xlink:href="#E1-MJMAIN-31"></use>
 <use xlink:href="#E1-MJMAIN-32" x="505" y="0"></use>
 <use xlink:href="#E1-MJMAIN-38" x="1010" y="0"></use>
</g>
 <use xlink:href="#E1-MJMAIN-29" x="3908" y="0"></use>
 <use xlink:href="#E1-MJMAIN-226B" x="4580" y="0"></use>
 <use xlink:href="#E1-MJMAIN-38" x="5862" y="0"></use>
</g>
<g transform="translate(0,-1480)">
 <use xlink:href="#E1-MJMAIN-28" x="0" y="0"></use>
 <use xlink:href="#E1-MJMATHI-56" x="394" y="0"></use>
 <use xlink:href="#E1-MJMAIN-2B" x="1390" y="0"></use>
<g transform="translate(2395,0)">
 <use xlink:href="#E1-MJMAIN-31"></use>
 <use xlink:href="#E1-MJMAIN-32" x="505" y="0"></use>
 <use xlink:href="#E1-MJMAIN-38" x="1010" y="0"></use>
</g>
 <use xlink:href="#E1-MJMAIN-29" x="3910" y="0"></use>
 <use xlink:href="#E1-MJMAIN-226B" x="4582" y="0"></use>
 <use xlink:href="#E1-MJMAIN-38" x="5864" y="0"></use>
</g>
</g>
</g>
</g>
</svg>